<svg width="400" height="220" viewBox="0 0 400 220" fill="none" xmlns="http://www.w3.org/2000/svg">
<g clip-path="url(#clip0_2_2)">
<path d="M0 20C0 8.9543 8.95431 0 20 0H380C391.046 0 400 8.95431 400 20V200C400 211.046 391.046 220 380 220H20C8.95431 220 0 211.046 0 200V20Z" fill="white"/>
<path d="M111 136C111 125.507 102.493 117 92 117C81.5066 117 73 125.507 73 136C73 146.493 81.5066 155 92 155C102.493 155 111 146.493 111 136Z" fill="white"/>
<path d="M90.0774 136.112C90.664 136.379 91.112 136.741 91.4214 137.2C91.7414 137.648 91.9014 138.176 91.9014 138.784C91.9014 139.467 91.7094 140.064 91.3254 140.576C90.952 141.088 90.4187 141.483 89.7254 141.76C89.032 142.027 88.2267 142.16 87.3094 142.16C86.392 142.16 85.5867 142.027 84.8934 141.76C84.2107 141.483 83.6827 141.088 83.3094 140.576C82.936 140.064 82.7494 139.467 82.7494 138.784C82.7494 138.176 82.904 137.648 83.2134 137.2C83.5227 136.741 83.9654 136.379 84.5414 136.112C84.0934 135.867 83.7467 135.547 83.5014 135.152C83.2667 134.747 83.1494 134.283 83.1494 133.76C83.1494 133.131 83.32 132.581 83.6614 132.112C84.0134 131.643 84.504 131.28 85.1334 131.024C85.7627 130.768 86.488 130.64 87.3094 130.64C88.1414 130.64 88.872 130.768 89.5014 131.024C90.1307 131.28 90.6214 131.643 90.9734 132.112C91.3254 132.581 91.5014 133.131 91.5014 133.76C91.5014 134.283 91.3787 134.741 91.1334 135.136C90.888 135.531 90.536 135.856 90.0774 136.112ZM87.3094 132.272C86.6587 132.272 86.1414 132.411 85.7574 132.688C85.384 132.965 85.1974 133.355 85.1974 133.856C85.1974 134.336 85.384 134.72 85.7574 135.008C86.1414 135.285 86.6587 135.424 87.3094 135.424C87.9707 135.424 88.4934 135.285 88.8774 135.008C89.2614 134.72 89.4534 134.336 89.4534 133.856C89.4534 133.355 89.256 132.965 88.8614 132.688C88.4774 132.411 87.96 132.272 87.3094 132.272ZM87.3094 140.528C88.0774 140.528 88.6854 140.368 89.1334 140.048C89.5814 139.728 89.8054 139.285 89.8054 138.72C89.8054 138.165 89.5814 137.728 89.1334 137.408C88.6854 137.088 88.0774 136.928 87.3094 136.928C86.5414 136.928 85.9387 137.088 85.5014 137.408C85.064 137.728 84.8454 138.165 84.8454 138.72C84.8454 139.285 85.064 139.728 85.5014 140.048C85.9387 140.368 86.5414 140.528 87.3094 140.528ZM96.7549 135.136C98.3335 135.136 99.5015 135.445 100.259 136.064C101.016 136.672 101.395 137.504 101.395 138.56C101.395 139.232 101.23 139.84 100.899 140.384C100.568 140.928 100.072 141.36 99.4109 141.68C98.7495 142 97.9335 142.16 96.9629 142.16C96.1629 142.16 95.3895 142.048 94.6429 141.824C93.8962 141.589 93.2669 141.269 92.7549 140.864L93.6349 139.248C94.0509 139.589 94.5469 139.861 95.1229 140.064C95.7095 140.256 96.3122 140.352 96.9309 140.352C97.6669 140.352 98.2429 140.203 98.6589 139.904C99.0855 139.595 99.2989 139.173 99.2989 138.64C99.2989 138.064 99.0695 137.632 98.6109 137.344C98.1629 137.045 97.3895 136.896 96.2909 136.896H93.5869L94.1629 130.8H100.739V132.544H95.9229L95.6829 135.136H96.7549Z" fill="#3D3D3D"/>
<path d="M111 136C111 125.507 102.493 117 92 117C81.5066 117 73 125.507 73 136C73 146.493 81.5066 155 92 155C102.493 155 111 146.493 111 136Z" stroke="#0032FF" stroke-width="2"/>
<path d="M91.9991 178.096C91.1351 178.096 90.3618 177.867 89.6791 177.408C89.0071 176.949 88.4791 176.293 88.0951 175.44C87.7218 174.576 87.5351 173.563 87.5351 172.4C87.5351 171.237 87.7218 170.229 88.0951 169.376C88.4791 168.512 89.0071 167.851 89.6791 167.392C90.3618 166.933 91.1351 166.704 91.9991 166.704C92.8631 166.704 93.6311 166.933 94.3031 167.392C94.9858 167.851 95.5191 168.512 95.9031 169.376C96.2871 170.229 96.4791 171.237 96.4791 172.4C96.4791 173.563 96.2871 174.576 95.9031 175.44C95.5191 176.293 94.9858 176.949 94.3031 177.408C93.6311 177.867 92.8631 178.096 91.9991 178.096ZM91.9991 177.04C92.6498 177.04 93.2205 176.859 93.7111 176.496C94.2125 176.133 94.6018 175.605 94.8791 174.912C95.1565 174.219 95.2951 173.381 95.2951 172.4C95.2951 171.419 95.1565 170.581 94.8791 169.888C94.6018 169.195 94.2125 168.667 93.7111 168.304C93.2205 167.941 92.6498 167.76 91.9991 167.76C91.3485 167.76 90.7725 167.941 90.2711 168.304C89.7805 168.667 89.3965 169.195 89.1191 169.888C88.8418 170.581 88.7031 171.419 88.7031 172.4C88.7031 173.381 88.8418 174.219 89.1191 174.912C89.3965 175.605 89.7805 176.133 90.2711 176.496C90.7725 176.859 91.3485 177.04 91.9991 177.04Z" fill="#3D3D3D"/>
<path fill-rule="evenodd" clip-rule="evenodd" d="M125.293 128.293C125.683 127.902 126.317 127.902 126.707 128.293L134.414 136L126.707 143.707C126.317 144.098 125.683 144.098 125.293 143.707C124.902 143.317 124.902 142.683 125.293 142.293L131.586 136L125.293 129.707C124.902 129.317 124.902 128.683 125.293 128.293Z" fill="#0032FF"/>
<path d="M183 136C183 125.507 174.493 117 164 117C153.507 117 145 125.507 145 136C145 146.493 153.507 155 164 155C174.493 155 183 146.493 183 136Z" fill="white"/>
<path d="M160.873 130.8V142H158.793V132.544H156.425V130.8H160.873ZM167.863 135.424C168.897 135.552 169.687 135.904 170.231 136.48C170.775 137.056 171.047 137.776 171.047 138.64C171.047 139.291 170.881 139.883 170.551 140.416C170.22 140.949 169.719 141.376 169.047 141.696C168.385 142.005 167.575 142.16 166.615 142.16C165.815 142.16 165.041 142.048 164.295 141.824C163.559 141.589 162.929 141.269 162.407 140.864L163.303 139.248C163.708 139.589 164.199 139.861 164.775 140.064C165.361 140.256 165.964 140.352 166.583 140.352C167.319 140.352 167.895 140.203 168.311 139.904C168.737 139.595 168.951 139.179 168.951 138.656C168.951 138.133 168.748 137.728 168.343 137.44C167.948 137.141 167.34 136.992 166.519 136.992H165.495V135.568L168.039 132.544H162.951V130.8H170.583V132.192L167.863 135.424Z" fill="#3D3D3D"/>
<path d="M183 136C183 125.507 174.493 117 164 117C153.507 117 145 125.507 145 136C145 146.493 153.507 155 164 155C174.493 155 183 146.493 183 136Z" stroke="#0032FF" stroke-width="2"/>
<path d="M165.045 166.8V178H163.893V167.824H161.253V166.8H165.045Z" fill="#3D3D3D"/>
<path fill-rule="evenodd" clip-rule="evenodd" d="M197.293 128.293C197.683 127.902 198.317 127.902 198.707 128.293L206.414 136L198.707 143.707C198.317 144.098 197.683 144.098 197.293 143.707C196.902 143.317 196.902 142.683 197.293 142.293L203.586 136L197.293 129.707C196.902 129.317 196.902 128.683 197.293 128.293Z" fill="#0032FF"/>
<path d="M255 136C255 125.507 246.493 117 236 117C225.507 117 217 125.507 217 136C217 146.493 225.507 155 236 155C246.493 155 255 146.493 255 136Z" fill="white"/>
<path d="M231.386 135.424C232.421 135.552 233.21 135.904 233.754 136.48C234.298 137.056 234.57 137.776 234.57 138.64C234.57 139.291 234.405 139.883 234.074 140.416C233.743 140.949 233.242 141.376 232.57 141.696C231.909 142.005 231.098 142.16 230.138 142.16C229.338 142.16 228.565 142.048 227.818 141.824C227.082 141.589 226.453 141.269 225.93 140.864L226.826 139.248C227.231 139.589 227.722 139.861 228.298 140.064C228.885 140.256 229.487 140.352 230.106 140.352C230.842 140.352 231.418 140.203 231.834 139.904C232.261 139.595 232.474 139.179 232.474 138.656C232.474 138.133 232.271 137.728 231.866 137.44C231.471 137.141 230.863 136.992 230.042 136.992H229.018V135.568L231.562 132.544H226.474V130.8H234.106V132.192L231.386 135.424ZM245.915 139.456H243.931V142H241.915V139.456H235.771V138.016L241.291 130.8H243.515L238.315 137.696H241.979V135.44H243.931V137.696H245.915V139.456Z" fill="#3D3D3D"/>
<path d="M255 136C255 125.507 246.493 117 236 117C225.507 117 217 125.507 217 136C217 146.493 225.507 155 236 155C246.493 155 255 146.493 255 136Z" stroke="#0032FF" stroke-width="2"/>
<path d="M239.933 176.976V178H232.077V177.184L236.733 172.624C237.32 172.048 237.714 171.552 237.917 171.136C238.13 170.709 238.237 170.283 238.237 169.856C238.237 169.195 238.008 168.683 237.549 168.32C237.101 167.947 236.456 167.76 235.613 167.76C234.301 167.76 233.282 168.176 232.557 169.008L231.741 168.304C232.178 167.792 232.733 167.397 233.405 167.12C234.088 166.843 234.856 166.704 235.709 166.704C236.85 166.704 237.752 166.976 238.413 167.52C239.085 168.053 239.421 168.789 239.421 169.728C239.421 170.304 239.293 170.859 239.037 171.392C238.781 171.925 238.296 172.539 237.581 173.232L233.773 176.976H239.933Z" fill="#3D3D3D"/>
<path fill-rule="evenodd" clip-rule="evenodd" d="M269.293 128.293C269.683 127.902 270.317 127.902 270.707 128.293L278.414 136L270.707 143.707C270.317 144.098 269.683 144.098 269.293 143.707C268.902 143.317 268.902 142.683 269.293 142.293L275.586 136L269.293 129.707C268.902 129.317 268.902 128.683 269.293 128.293Z" fill="#0032FF"/>
<path d="M327 136C327 125.507 318.493 117 308 117C297.507 117 289 125.507 289 136C289 146.493 297.507 155 308 155C318.493 155 327 146.493 327 136Z" fill="white"/>
<path d="M309.529 130.8V142H307.449V132.544H305.081V130.8H309.529Z" fill="#3D3D3D"/>
<path d="M327 136C327 125.507 318.493 117 308 117C297.507 117 289 125.507 289 136C289 146.493 297.507 155 308 155C318.493 155 327 146.493 327 136Z" stroke="#0032FF" stroke-width="2"/>
<path d="M308.124 171.6C309.298 171.664 310.188 171.984 310.796 172.56C311.415 173.125 311.724 173.867 311.724 174.784C311.724 175.424 311.57 175.995 311.26 176.496C310.951 176.987 310.492 177.376 309.884 177.664C309.276 177.952 308.535 178.096 307.66 178.096C306.85 178.096 306.082 177.968 305.356 177.712C304.642 177.445 304.066 177.093 303.628 176.656L304.188 175.744C304.562 176.128 305.058 176.443 305.676 176.688C306.295 176.923 306.956 177.04 307.66 177.04C308.578 177.04 309.287 176.843 309.788 176.448C310.29 176.043 310.54 175.488 310.54 174.784C310.54 174.091 310.29 173.547 309.788 173.152C309.287 172.757 308.53 172.56 307.516 172.56H306.716V171.712L309.82 167.824H304.092V166.8H311.292V167.616L308.124 171.6Z" fill="#3D3D3D"/>
<path d="M248 92C248 85.3726 242.627 80 236 80C229.373 80 224 85.3726 224 92C224 98.6274 229.373 104 236 104C242.627 104 248 98.6274 248 92Z" fill="#D252E1"/>
<path d="M238.749 92.112C239.336 92.3787 239.784 92.7413 240.093 93.2C240.413 93.648 240.573 94.176 240.573 94.784C240.573 95.4667 240.381 96.064 239.997 96.576C239.624 97.088 239.091 97.4827 238.397 97.76C237.704 98.0267 236.899 98.16 235.981 98.16C235.064 98.16 234.259 98.0267 233.565 97.76C232.883 97.4827 232.355 97.088 231.981 96.576C231.608 96.064 231.421 95.4667 231.421 94.784C231.421 94.176 231.576 93.648 231.885 93.2C232.195 92.7413 232.637 92.3787 233.213 92.112C232.765 91.8667 232.419 91.5467 232.173 91.152C231.939 90.7467 231.821 90.2827 231.821 89.76C231.821 89.1307 231.992 88.5813 232.333 88.112C232.685 87.6427 233.176 87.28 233.805 87.024C234.435 86.768 235.16 86.64 235.981 86.64C236.813 86.64 237.544 86.768 238.173 87.024C238.803 87.28 239.293 87.6427 239.645 88.112C239.997 88.5813 240.173 89.1307 240.173 89.76C240.173 90.2827 240.051 90.7413 239.805 91.136C239.56 91.5307 239.208 91.856 238.749 92.112ZM235.981 88.272C235.331 88.272 234.813 88.4107 234.429 88.688C234.056 88.9653 233.869 89.3547 233.869 89.856C233.869 90.336 234.056 90.72 234.429 91.008C234.813 91.2853 235.331 91.424 235.981 91.424C236.643 91.424 237.165 91.2853 237.549 91.008C237.933 90.72 238.125 90.336 238.125 89.856C238.125 89.3547 237.928 88.9653 237.533 88.688C237.149 88.4107 236.632 88.272 235.981 88.272ZM235.981 96.528C236.749 96.528 237.357 96.368 237.805 96.048C238.253 95.728 238.477 95.2853 238.477 94.72C238.477 94.1653 238.253 93.728 237.805 93.408C237.357 93.088 236.749 92.928 235.981 92.928C235.213 92.928 234.611 93.088 234.173 93.408C233.736 93.728 233.517 94.1653 233.517 94.72C233.517 95.2853 233.736 95.728 234.173 96.048C234.611 96.368 235.213 96.528 235.981 96.528Z" fill="white"/>
<path d="M20 1H380V-1H20V1ZM399 20V200H401V20H399ZM380 219H20V221H380V219ZM1 200V20H-1V200H1ZM20 219C9.50659 219 1 210.493 1 200H-1C-1 211.598 8.40203 221 20 221V219ZM399 200C399 210.493 390.493 219 380 219V221C391.598 221 401 211.598 401 200H399ZM380 1C390.493 1 399 9.50659 399 20H401C401 8.40202 391.598 -1 380 -1V1ZM20 -1C8.40202 -1 -1 8.40201 -1 20H1C1 9.50658 9.50659 1 20 1V-1Z" fill="#141414"/>
<path d="M191.134 39.92V30.38H186.202L186.112 32.612C186.076 33.452 186.022 34.25 185.95 35.006C185.89 35.75 185.788 36.428 185.644 37.04C185.512 37.652 185.326 38.162 185.086 38.57C184.846 38.978 184.552 39.248 184.204 39.38L181.684 39.02C182.14 39.044 182.512 38.888 182.8 38.552C183.1 38.216 183.334 37.748 183.502 37.148C183.67 36.548 183.796 35.846 183.88 35.042C183.964 34.226 184.024 33.344 184.06 32.396L184.204 28.4H193.438V39.92H191.134ZM181.252 43.682L181.27 39.02H195.256V43.682H193.096V41H183.43V43.682H181.252ZM201.531 41.126C200.463 41.126 199.527 40.916 198.723 40.496C197.931 40.064 197.313 39.476 196.869 38.732C196.437 37.988 196.221 37.142 196.221 36.194C196.221 35.234 196.431 34.388 196.851 33.656C197.283 32.912 197.871 32.33 198.615 31.91C199.371 31.49 200.229 31.28 201.189 31.28C202.125 31.28 202.959 31.484 203.691 31.892C204.423 32.3 204.999 32.876 205.419 33.62C205.839 34.364 206.049 35.24 206.049 36.248C206.049 36.344 206.043 36.452 206.031 36.572C206.031 36.692 206.025 36.806 206.013 36.914H198.003V35.42H204.825L203.943 35.888C203.955 35.336 203.841 34.85 203.601 34.43C203.361 34.01 203.031 33.68 202.611 33.44C202.203 33.2 201.729 33.08 201.189 33.08C200.637 33.08 200.151 33.2 199.731 33.44C199.323 33.68 198.999 34.016 198.759 34.448C198.531 34.868 198.417 35.366 198.417 35.942V36.302C198.417 36.878 198.549 37.388 198.813 37.832C199.077 38.276 199.449 38.618 199.929 38.858C200.409 39.098 200.961 39.218 201.585 39.218C202.125 39.218 202.611 39.134 203.043 38.966C203.475 38.798 203.859 38.534 204.195 38.174L205.401 39.56C204.969 40.064 204.423 40.454 203.763 40.73C203.115 40.994 202.371 41.126 201.531 41.126ZM215.404 41L211.93 36.392L213.766 35.258L218.05 41H215.404ZM208.51 41V31.388H210.76V41H208.51ZM210.094 37.148V35.276H213.352V37.148H210.094ZM213.982 36.464L211.876 36.212L215.404 31.388H217.816L213.982 36.464Z" fill="black"/>
</g>
<defs>
<clipPath id="clip0_2_2">
<rect width="400" height="220" fill="white"/>
</clipPath>
</defs>
</svg>
