<svg width="400" height="220" viewBox="0 0 400 220" fill="none" xmlns="http://www.w3.org/2000/svg">
<g clip-path="url(#clip0_2_55)">
<path d="M0 20C0 8.9543 8.95431 0 20 0H380C391.046 0 400 8.95431 400 20V200C400 211.046 391.046 220 380 220H20C8.95431 220 0 211.046 0 200V20Z" fill="white"/>
<path d="M92.9794 114.8V126H90.8994V121.2H85.1074V126H83.0274V114.8H85.1074V119.424H90.8994V114.8H92.9794Z" fill="#3D3D3D"/>
<path d="M107 120C107 109.507 98.4934 101 88 101C77.5066 101 69 109.507 69 120C69 130.493 77.5066 139 88 139C98.4934 139 107 130.493 107 120Z" stroke="#0032FF" stroke-width="2"/>
<path d="M148.545 124.256V126H140.145V114.8H148.321V116.544H142.225V119.456H147.633V121.168H142.225V124.256H148.545Z" fill="#3D3D3D"/>
<path d="M163 120C163 109.507 154.493 101 144 101C133.507 101 125 109.507 125 120C125 130.493 133.507 139 144 139C154.493 139 163 130.493 163 120Z" stroke="#0032FF" stroke-width="2"/>
<path d="M196.715 114.8H198.795V124.24H204.651V126H196.715V114.8Z" fill="#3D3D3D"/>
<path d="M219 120C219 109.507 210.493 101 200 101C189.507 101 181 109.507 181 120C181 130.493 189.507 139 200 139C210.493 139 219 130.493 219 120Z" stroke="#0032FF" stroke-width="2"/>
<path d="M252.715 114.8H254.795V124.24H260.651V126H252.715V114.8Z" fill="#3D3D3D"/>
<path d="M275 120C275 109.507 266.493 101 256 101C245.507 101 237 109.507 237 120C237 130.493 245.507 139 256 139C266.493 139 275 130.493 275 120Z" stroke="#0032FF" stroke-width="2"/>
<path d="M312.002 126.16C310.86 126.16 309.831 125.915 308.914 125.424C307.996 124.923 307.276 124.235 306.754 123.36C306.231 122.475 305.97 121.488 305.97 120.4C305.97 119.312 306.231 118.331 306.754 117.456C307.276 116.571 307.996 115.883 308.914 115.392C309.831 114.891 310.86 114.64 312.002 114.64C313.143 114.64 314.172 114.891 315.09 115.392C316.007 115.883 316.727 116.565 317.25 117.44C317.772 118.315 318.034 119.301 318.034 120.4C318.034 121.499 317.772 122.485 317.25 123.36C316.727 124.235 316.007 124.923 315.09 125.424C314.172 125.915 313.143 126.16 312.002 126.16ZM312.002 124.336C312.748 124.336 313.42 124.171 314.018 123.84C314.615 123.499 315.084 123.029 315.426 122.432C315.767 121.824 315.938 121.147 315.938 120.4C315.938 119.653 315.767 118.981 315.426 118.384C315.084 117.776 314.615 117.307 314.018 116.976C313.42 116.635 312.748 116.464 312.002 116.464C311.255 116.464 310.583 116.635 309.986 116.976C309.388 117.307 308.919 117.776 308.578 118.384C308.236 118.981 308.066 119.653 308.066 120.4C308.066 121.147 308.236 121.824 308.578 122.432C308.919 123.029 309.388 123.499 309.986 123.84C310.583 124.171 311.255 124.336 312.002 124.336Z" fill="#3D3D3D"/>
<path d="M331 120C331 109.507 322.493 101 312 101C301.507 101 293 109.507 293 120C293 130.493 301.507 139 312 139C322.493 139 331 130.493 331 120Z" stroke="#0032FF" stroke-width="2"/>
<path d="M20 1H380V-1H20V1ZM399 20V200H401V20H399ZM380 219H20V221H380V219ZM1 200V20H-1V200H1ZM20 219C9.50659 219 1 210.493 1 200H-1C-1 211.598 8.40203 221 20 221V219ZM399 200C399 210.493 390.493 219 380 219V221C391.598 221 401 211.598 401 200H399ZM380 1C390.493 1 399 9.50659 399 20H401C401 8.40202 391.598 -1 380 -1V1ZM20 -1C8.40202 -1 -1 8.40201 -1 20H1C1 9.50658 9.50659 1 20 1V-1Z" fill="#141414"/>
<path d="M120.764 41V28.4H125.948C127.064 28.4 128.018 28.58 128.81 28.94C129.614 29.3 130.232 29.816 130.664 30.488C131.096 31.16 131.312 31.958 131.312 32.882C131.312 33.806 131.096 34.604 130.664 35.276C130.232 35.948 129.614 36.464 128.81 36.824C128.018 37.184 127.064 37.364 125.948 37.364H122.06L123.104 36.266V41H120.764ZM123.104 36.518L122.06 35.384H125.84C126.872 35.384 127.646 35.168 128.162 34.736C128.69 34.292 128.954 33.674 128.954 32.882C128.954 32.078 128.69 31.46 128.162 31.028C127.646 30.596 126.872 30.38 125.84 30.38H122.06L123.104 29.228V36.518ZM139.018 41V39.056L138.892 38.642V35.24C138.892 34.58 138.694 34.07 138.298 33.71C137.902 33.338 137.302 33.152 136.498 33.152C135.958 33.152 135.424 33.236 134.896 33.404C134.38 33.572 133.942 33.806 133.582 34.106L132.7 32.468C133.216 32.072 133.828 31.778 134.536 31.586C135.256 31.382 136 31.28 136.768 31.28C138.16 31.28 139.234 31.616 139.99 32.288C140.758 32.948 141.142 33.974 141.142 35.366V41H139.018ZM135.994 41.126C135.274 41.126 134.644 41.006 134.104 40.766C133.564 40.514 133.144 40.172 132.844 39.74C132.556 39.296 132.412 38.798 132.412 38.246C132.412 37.706 132.538 37.22 132.79 36.788C133.054 36.356 133.48 36.014 134.068 35.762C134.656 35.51 135.436 35.384 136.408 35.384H139.198V36.878H136.57C135.802 36.878 135.286 37.004 135.022 37.256C134.758 37.496 134.626 37.796 134.626 38.156C134.626 38.564 134.788 38.888 135.112 39.128C135.436 39.368 135.886 39.488 136.462 39.488C137.014 39.488 137.506 39.362 137.938 39.11C138.382 38.858 138.7 38.486 138.892 37.994L139.27 39.344C139.054 39.908 138.664 40.346 138.1 40.658C137.548 40.97 136.846 41.126 135.994 41.126ZM146.845 41.162C146.113 41.162 145.387 41.078 144.667 40.91C143.959 40.73 143.317 40.478 142.741 40.154L143.371 38.48C143.839 38.744 144.367 38.948 144.955 39.092C145.543 39.236 146.131 39.308 146.719 39.308C147.223 39.308 147.655 39.26 148.015 39.164C148.375 39.056 148.651 38.9 148.843 38.696C149.047 38.492 149.149 38.258 149.149 37.994C149.149 37.61 148.981 37.322 148.645 37.13C148.321 36.926 147.853 36.824 147.241 36.824H145.387V35.312H147.061C147.445 35.312 147.769 35.27 148.033 35.186C148.309 35.102 148.519 34.976 148.663 34.808C148.807 34.64 148.879 34.442 148.879 34.214C148.879 33.986 148.789 33.788 148.609 33.62C148.441 33.44 148.195 33.308 147.871 33.224C147.547 33.128 147.157 33.08 146.701 33.08C146.221 33.08 145.723 33.14 145.207 33.26C144.703 33.38 144.187 33.554 143.659 33.782L143.083 32.126C143.695 31.85 144.289 31.64 144.865 31.496C145.453 31.34 146.035 31.256 146.611 31.244C147.487 31.208 148.267 31.298 148.951 31.514C149.635 31.73 150.175 32.042 150.571 32.45C150.967 32.858 151.165 33.338 151.165 33.89C151.165 34.346 151.021 34.76 150.733 35.132C150.457 35.492 150.073 35.774 149.581 35.978C149.101 36.182 148.549 36.284 147.925 36.284L147.997 35.798C149.065 35.798 149.905 36.014 150.517 36.446C151.129 36.866 151.435 37.442 151.435 38.174C151.435 38.762 151.237 39.284 150.841 39.74C150.445 40.184 149.899 40.532 149.203 40.784C148.519 41.036 147.733 41.162 146.845 41.162ZM153.752 41V31.388H158.45C159.614 31.388 160.526 31.604 161.186 32.036C161.858 32.468 162.194 33.08 162.194 33.872C162.194 34.652 161.882 35.264 161.258 35.708C160.634 36.14 159.806 36.356 158.774 36.356L159.044 35.798C160.208 35.798 161.072 36.014 161.636 36.446C162.212 36.866 162.5 37.484 162.5 38.3C162.5 39.152 162.182 39.818 161.546 40.298C160.91 40.766 159.944 41 158.648 41H153.752ZM155.894 39.362H158.468C159.08 39.362 159.542 39.266 159.854 39.074C160.166 38.87 160.322 38.564 160.322 38.156C160.322 37.724 160.178 37.406 159.89 37.202C159.602 36.998 159.152 36.896 158.54 36.896H155.894V39.362ZM155.894 35.402H158.252C158.828 35.402 159.26 35.3 159.548 35.096C159.848 34.88 159.998 34.58 159.998 34.196C159.998 33.8 159.848 33.506 159.548 33.314C159.26 33.122 158.828 33.026 158.252 33.026H155.894V35.402ZM169.181 41.126C168.197 41.126 167.321 40.916 166.553 40.496C165.785 40.064 165.179 39.476 164.735 38.732C164.291 37.988 164.069 37.142 164.069 36.194C164.069 35.234 164.291 34.388 164.735 33.656C165.179 32.912 165.785 32.33 166.553 31.91C167.321 31.49 168.197 31.28 169.181 31.28C170.177 31.28 171.059 31.49 171.827 31.91C172.607 32.33 173.213 32.906 173.645 33.638C174.089 34.37 174.311 35.222 174.311 36.194C174.311 37.142 174.089 37.988 173.645 38.732C173.213 39.476 172.607 40.064 171.827 40.496C171.059 40.916 170.177 41.126 169.181 41.126ZM169.181 39.2C169.733 39.2 170.225 39.08 170.657 38.84C171.089 38.6 171.425 38.252 171.665 37.796C171.917 37.34 172.043 36.806 172.043 36.194C172.043 35.57 171.917 35.036 171.665 34.592C171.425 34.136 171.089 33.788 170.657 33.548C170.225 33.308 169.739 33.188 169.199 33.188C168.647 33.188 168.155 33.308 167.723 33.548C167.303 33.788 166.967 34.136 166.715 34.592C166.463 35.036 166.337 35.57 166.337 36.194C166.337 36.806 166.463 37.34 166.715 37.796C166.967 38.252 167.303 38.6 167.723 38.84C168.155 39.08 168.641 39.2 169.181 39.2ZM181.861 41.126C181.081 41.126 180.367 40.946 179.719 40.586C179.083 40.226 178.573 39.686 178.189 38.966C177.817 38.234 177.631 37.31 177.631 36.194C177.631 35.066 177.811 34.142 178.171 33.422C178.543 32.702 179.047 32.168 179.683 31.82C180.319 31.46 181.045 31.28 181.861 31.28C182.809 31.28 183.643 31.484 184.363 31.892C185.095 32.3 185.671 32.87 186.091 33.602C186.523 34.334 186.739 35.198 186.739 36.194C186.739 37.19 186.523 38.06 186.091 38.804C185.671 39.536 185.095 40.106 184.363 40.514C183.643 40.922 182.809 41.126 181.861 41.126ZM176.533 44.492V31.388H178.675V33.656L178.603 36.212L178.783 38.768V44.492H176.533ZM181.609 39.2C182.149 39.2 182.629 39.08 183.049 38.84C183.481 38.6 183.823 38.252 184.075 37.796C184.327 37.34 184.453 36.806 184.453 36.194C184.453 35.57 184.327 35.036 184.075 34.592C183.823 34.136 183.481 33.788 183.049 33.548C182.629 33.308 182.149 33.188 181.609 33.188C181.069 33.188 180.583 33.308 180.151 33.548C179.719 33.788 179.377 34.136 179.125 34.592C178.873 35.036 178.747 35.57 178.747 36.194C178.747 36.806 178.873 37.34 179.125 37.796C179.377 38.252 179.719 38.6 180.151 38.84C180.583 39.08 181.069 39.2 181.609 39.2ZM193.263 41.126C192.279 41.126 191.403 40.916 190.635 40.496C189.867 40.064 189.261 39.476 188.817 38.732C188.373 37.988 188.151 37.142 188.151 36.194C188.151 35.234 188.373 34.388 188.817 33.656C189.261 32.912 189.867 32.33 190.635 31.91C191.403 31.49 192.279 31.28 193.263 31.28C194.259 31.28 195.141 31.49 195.909 31.91C196.689 32.33 197.295 32.906 197.727 33.638C198.171 34.37 198.393 35.222 198.393 36.194C198.393 37.142 198.171 37.988 197.727 38.732C197.295 39.476 196.689 40.064 195.909 40.496C195.141 40.916 194.259 41.126 193.263 41.126ZM193.263 39.2C193.815 39.2 194.307 39.08 194.739 38.84C195.171 38.6 195.507 38.252 195.747 37.796C195.999 37.34 196.125 36.806 196.125 36.194C196.125 35.57 195.999 35.036 195.747 34.592C195.507 34.136 195.171 33.788 194.739 33.548C194.307 33.308 193.821 33.188 193.281 33.188C192.729 33.188 192.237 33.308 191.805 33.548C191.385 33.788 191.049 34.136 190.797 34.592C190.545 35.036 190.419 35.57 190.419 36.194C190.419 36.806 190.545 37.34 190.797 37.796C191.049 38.252 191.385 38.6 191.805 38.84C192.237 39.08 192.723 39.2 193.263 39.2ZM202.262 41V32.756L202.784 33.296H198.878V31.388H207.878V33.296H203.99L204.512 32.756V41H202.262ZM218.859 41.126C217.851 41.126 216.951 40.916 216.159 40.496C215.379 40.064 214.767 39.476 214.323 38.732C213.879 37.988 213.657 37.142 213.657 36.194C213.657 35.234 213.879 34.388 214.323 33.656C214.767 32.912 215.379 32.33 216.159 31.91C216.951 31.49 217.851 31.28 218.859 31.28C219.795 31.28 220.617 31.472 221.325 31.856C222.045 32.228 222.591 32.78 222.963 33.512L221.235 34.52C220.947 34.064 220.593 33.728 220.173 33.512C219.765 33.296 219.321 33.188 218.841 33.188C218.289 33.188 217.791 33.308 217.347 33.548C216.903 33.788 216.555 34.136 216.303 34.592C216.051 35.036 215.925 35.57 215.925 36.194C215.925 36.818 216.051 37.358 216.303 37.814C216.555 38.258 216.903 38.6 217.347 38.84C217.791 39.08 218.289 39.2 218.841 39.2C219.321 39.2 219.765 39.092 220.173 38.876C220.593 38.66 220.947 38.324 221.235 37.868L222.963 38.876C222.591 39.596 222.045 40.154 221.325 40.55C220.617 40.934 219.795 41.126 218.859 41.126ZM226.871 41V32.756L227.393 33.296H223.487V31.388H232.487V33.296H228.599L229.121 32.756V41H226.871ZM239.447 41.126C238.667 41.126 237.953 40.946 237.305 40.586C236.669 40.226 236.159 39.686 235.775 38.966C235.403 38.234 235.217 37.31 235.217 36.194C235.217 35.066 235.397 34.142 235.757 33.422C236.129 32.702 236.633 32.168 237.269 31.82C237.905 31.46 238.631 31.28 239.447 31.28C240.395 31.28 241.229 31.484 241.949 31.892C242.681 32.3 243.257 32.87 243.677 33.602C244.109 34.334 244.325 35.198 244.325 36.194C244.325 37.19 244.109 38.06 243.677 38.804C243.257 39.536 242.681 40.106 241.949 40.514C241.229 40.922 240.395 41.126 239.447 41.126ZM234.119 44.492V31.388H236.261V33.656L236.189 36.212L236.369 38.768V44.492H234.119ZM239.195 39.2C239.735 39.2 240.215 39.08 240.635 38.84C241.067 38.6 241.409 38.252 241.661 37.796C241.913 37.34 242.039 36.806 242.039 36.194C242.039 35.57 241.913 35.036 241.661 34.592C241.409 34.136 241.067 33.788 240.635 33.548C240.215 33.308 239.735 33.188 239.195 33.188C238.655 33.188 238.169 33.308 237.737 33.548C237.305 33.788 236.963 34.136 236.711 34.592C236.459 35.036 236.333 35.57 236.333 36.194C236.333 36.806 236.459 37.34 236.711 37.796C236.963 38.252 237.305 38.6 237.737 38.84C238.169 39.08 238.655 39.2 239.195 39.2ZM250.849 41.126C249.865 41.126 248.989 40.916 248.221 40.496C247.453 40.064 246.847 39.476 246.403 38.732C245.959 37.988 245.737 37.142 245.737 36.194C245.737 35.234 245.959 34.388 246.403 33.656C246.847 32.912 247.453 32.33 248.221 31.91C248.989 31.49 249.865 31.28 250.849 31.28C251.845 31.28 252.727 31.49 253.495 31.91C254.275 32.33 254.881 32.906 255.313 33.638C255.757 34.37 255.979 35.222 255.979 36.194C255.979 37.142 255.757 37.988 255.313 38.732C254.881 39.476 254.275 40.064 253.495 40.496C252.727 40.916 251.845 41.126 250.849 41.126ZM250.849 39.2C251.401 39.2 251.893 39.08 252.325 38.84C252.757 38.6 253.093 38.252 253.333 37.796C253.585 37.34 253.711 36.806 253.711 36.194C253.711 35.57 253.585 35.036 253.333 34.592C253.093 34.136 252.757 33.788 252.325 33.548C251.893 33.308 251.407 33.188 250.867 33.188C250.315 33.188 249.823 33.308 249.391 33.548C248.971 33.788 248.635 34.136 248.383 34.592C248.131 35.036 248.005 35.57 248.005 36.194C248.005 36.806 248.131 37.34 248.383 37.796C248.635 38.252 248.971 38.6 249.391 38.84C249.823 39.08 250.309 39.2 250.849 39.2ZM265.095 41L261.621 36.392L263.457 35.258L267.741 41H265.095ZM258.201 41V31.388H260.451V41H258.201ZM259.785 37.148V35.276H263.043V37.148H259.785ZM263.673 36.464L261.567 36.212L265.095 31.388H267.507L263.673 36.464ZM269.328 41V31.388H271.578V37.724L276.888 31.388H278.94V41H276.69V34.664L271.398 41H269.328Z" fill="black"/>
</g>
<defs>
<clipPath id="clip0_2_55">
<rect width="400" height="220" fill="white"/>
</clipPath>
</defs>
</svg>
